# xmcd
# 
# Track frame offsets:
#     150
#     23754
#     45842
#     66799
#     89341
#     111975
#     133922
#     157688
#     174404
#     196116
# 
# Disc length: 2940
# 
# Revision: 2
# Processed by: cddbd v1.5.2PL0 Copyright (c) Steve Scherf et al.
# Submitted via: fre:ac v1.0.31
# 
DISCID=750b7a0a
DTITLE=Robert Cray - Time Will Tell
DYEAR=2003
DGENRE=Blues
TTITLE0=Survivor
TTITLE1=Up In The Sky
TTITLE2=Back Door Slam
TTITLE3=I Didn't Know
TTITLE4=Your Pal
TTITLE5=Lotta Lovin'
TTITLE6=What You Need (Good Man)
TTITLE7=Spare Some Love?
TTITLE8=Distant Shore
TTITLE9=Time Makes Two
EXTD=YEAR: 2003
EXTT0=
EXTT1=
EXTT2=
EXTT3=
EXTT4=
EXTT5=
EXTT6=
EXTT7=
EXTT8=
EXTT9=
PLAYORDER=
